HIERARCHY
ROOT Hips
{
	OFFSET -0.001795 -0.223333 0.028219
	CHANNELS 6 Xposition Yposition Zposition Zrotation Yrotation Xrotation 
	JOINT LeftUpLeg
	{
		OFFSET 0.069520 -0.091406 -0.006815
		CHANNELS 3 Zrotation Yrotation Xrotation
		JOINT LeftLeg
		{
			OFFSET 0.034277 -0.375199 -0.004496
			CHANNELS 3 Zrotation Yrotation Xrotation
			JOINT LeftFoot
			{
				OFFSET -0.013596 -0.397961 -0.043693
				CHANNELS 3 Zrotation Yrotation Xrotation
				JOINT LeftToe
				{
					OFFSET 0.026358 -0.055791 0.119288
					CHANNELS 3 Zrotation Yrotation Xrotation
					End Site
					{
						OFFSET 0.000000 0.000000 0.000000
					}
				}
			}
		}
	}
	JOINT RightUpLeg
	{
		OFFSET -0.067670 -0.090522 -0.004320
		CHANNELS 3 Zrotation Yrotation Xrotation
		JOINT RightLeg
		{
			OFFSET -0.038290 -0.382569 -0.008850
			CHANNELS 3 Zrotation Yrotation Xrotation
			JOINT RightFoot
			{
				OFFSET 0.015774 -0.398415 -0.042312
				CHANNELS 3 Zrotation Yrotation Xrotation
				JOINT RightToe
				{
					OFFSET -0.025372 -0.048144 0.123348
					CHANNELS 3 Zrotation Yrotation Xrotation
					End Site
					{
						OFFSET 0.000000 0.000000 0.000000
					}
				}
			}
		}
	}
	JOINT Spine
	{
		OFFSET -0.002533 0.108963 -0.026696
		CHANNELS 3 Zrotation Yrotation Xrotation
		JOINT Spine1
		{
			OFFSET 0.005487 0.135180 0.001092
			CHANNELS 3 Zrotation Yrotation Xrotation
			JOINT Spine2
			{
				OFFSET 0.001457 0.052922 0.025425
				CHANNELS 3 Zrotation Yrotation Xrotation
				JOINT Neck
				{
					OFFSET -0.002778 0.213870 -0.042857
					CHANNELS 3 Zrotation Yrotation Xrotation
					JOINT Head
					{
						OFFSET 0.005152 0.064970 0.051349
						CHANNELS 3 Zrotation Yrotation Xrotation
						End Site
						{
							OFFSET 0.000000 0.000000 0.000000
						}
					}
				}
				JOINT LeftShoulder
				{
					OFFSET 0.078845 0.121749 -0.034090
					CHANNELS 3 Zrotation Yrotation Xrotation
					JOINT LeftArm
					{
						OFFSET 0.090977 0.030469 -0.008868
						CHANNELS 3 Zrotation Yrotation Xrotation
						JOINT LeftForeArm
						{
							OFFSET 0.259612 -0.012772 -0.027456
							CHANNELS 3 Zrotation Yrotation Xrotation
							JOINT LeftHand
							{
								OFFSET 0.249234 0.008986 -0.001171
								CHANNELS 3 Zrotation Yrotation Xrotation
								End Site
								{
									OFFSET 0.000000 0.000000 0.000000
								}
							}
						}
					}
				}
				JOINT RightShoulder
				{
					OFFSET -0.081759 0.118833 -0.038615
					CHANNELS 3 Zrotation Yrotation Xrotation
					JOINT RightArm
					{
						OFFSET -0.096012 0.032551 -0.009143
						CHANNELS 3 Zrotation Yrotation Xrotation
						JOINT RightForeArm
						{
							OFFSET -0.253742 -0.013329 -0.021401
							CHANNELS 3 Zrotation Yrotation Xrotation
							JOINT RightHand
							{
								OFFSET -0.255298 0.007772 -0.005559
								CHANNELS 3 Zrotation Yrotation Xrotation
								End Site
								{
									OFFSET 0.000000 0.000000 0.000000
								}
							}
						}
					}
				}
			}
		}
	}
}
MOTION
Frames: 9
Frame Time: 0.050000
-0.003902 0.888573 -0.147077 -4.520001 -3.514126 15.206568 17.083001 1.970148 -33.897039 -7.357321 2.747997 35.331773 3.130552 4.144860 -8.131726 0.000000 0.000000 0.000000 -4.217509 2.950970 -35.601301 4.288677 0.078751 37.458753 -3.631389 -7.642101 -5.333667 0.000000 0.000000 0.000000 0.263464 -0.549892 12.931228 -0.790306 0.439016 -6.757456 -7.326043 5.142888 7.759063 18.183977 -6.893622 -25.539503 0.000000 0.000000 0.000000 -7.891833 -5.100295 0.965428 -13.702351 1.554732 -1.563395 -37.662749 -51.535519 19.888775 0.000000 0.000000 0.000000 7.851483 -4.182311 -2.047602 21.721748 -7.311035 -3.085797 45.023142 42.636601 20.063263 0.000000 0.000000 0.000000 
-0.004444 0.902711 -0.145507 -4.183200 -2.859248 15.360048 15.883132 1.366393 -32.040465 -6.535796 2.059980 31.636235 3.030751 4.778319 -5.645252 0.000000 0.000000 0.000000 -4.385665 2.634752 -33.190195 3.697505 0.154231 33.419355 -3.148267 -6.987433 -3.501947 0.000000 0.000000 0.000000 0.611494 -0.537698 10.914551 -0.587290 0.384948 -7.885227 -6.449899 5.643761 8.529599 16.881666 -6.333665 -24.997002 0.000000 0.000000 0.000000 -3.745333 -3.021234 0.522592 -8.975676 0.576347 -0.975913 -40.065595 -53.717715 21.885537 0.000000 0.000000 0.000000 3.633610 -5.644781 -2.301246 18.758837 -6.859717 -2.578077 50.815945 46.166575 25.128207 0.000000 0.000000 0.000000 
-0.004849 0.915165 -0.143040 -3.745968 -2.097454 15.235410 15.119331 0.915935 -29.792376 -6.021426 1.575601 27.729965 2.386226 3.941852 -3.597351 0.000000 0.000000 0.000000 -3.947407 2.468837 -30.849528 2.258630 0.563341 30.506270 -2.665889 -6.385027 -1.628597 0.000000 0.000000 0.000000 0.987869 -0.523705 9.235562 -0.679666 0.441813 -8.602672 -6.120383 6.291030 8.921685 16.286964 -6.400490 -23.196390 0.000000 0.000000 0.000000 1.184515 -0.875605 0.381604 -3.502870 0.281381 -0.369091 -39.181696 -58.556014 23.187713 0.000000 0.000000 0.000000 -0.814706 -7.575473 -2.670958 14.890411 -6.695121 -1.956357 58.564312 49.471701 32.039575 0.000000 0.000000 0.000000 
-0.004365 0.924066 -0.139879 -3.419060 -1.712810 15.290142 14.079035 0.518077 -27.846806 -4.946843 1.030694 24.237816 2.173920 4.260642 -1.317639 0.000000 0.000000 0.000000 -4.130080 2.246713 -28.837681 1.754573 0.625306 27.876698 -2.241388 -5.985682 0.230132 0.000000 0.000000 0.000000 1.395032 -0.481361 7.269828 -0.824307 0.505354 -8.893358 -5.258941 6.858679 8.693241 15.147060 -5.641494 -23.429260 0.000000 0.000000 0.000000 7.246405 1.838068 0.536492 0.463568 -0.719463 -0.005886 -29.051548 -59.447546 17.138112 0.000000 0.000000 0.000000 -6.084863 -9.808214 -2.959682 11.146005 -5.962203 -1.325292 63.775591 54.305263 39.508492 0.000000 0.000000 0.000000 
-0.002614 0.929509 -0.136338 -3.014489 -1.337696 15.079418 13.036230 0.185263 -25.841860 -4.244793 0.699849 20.972379 2.044706 4.328771 -0.287744 0.000000 0.000000 0.000000 -4.109999 2.083542 -26.975672 0.774454 0.853069 25.714111 -2.088003 -5.995492 1.334333 0.000000 0.000000 0.000000 1.683825 -0.458668 6.227609 -0.615241 0.457924 -10.158138 -4.459362 7.137716 9.148191 14.461217 -5.657797 -21.726236 0.000000 0.000000 0.000000 12.774422 5.675582 0.616605 2.813869 -2.688855 0.065468 -12.993562 -54.414840 6.866226 0.000000 0.000000 0.000000 -11.713720 -11.859155 -2.961325 8.059169 -3.599268 -0.856226 58.438272 57.758673 38.957797 0.000000 0.000000 0.000000 
0.000588 0.934564 -0.132972 -2.726338 -1.288683 15.021327 11.763260 -0.117542 -23.908266 -2.753893 0.235382 17.762414 1.404690 3.334019 0.793909 0.000000 0.000000 0.000000 -4.574314 1.895860 -25.433351 0.915118 0.728681 23.929652 -2.123113 -6.418647 2.291455 0.000000 0.000000 0.000000 1.724462 -0.385077 4.827977 -0.459323 0.399315 -9.933146 -2.971559 7.491353 7.751245 13.357143 -5.064028 -21.237462 0.000000 0.000000 0.000000 18.416078 8.551412 1.282373 3.156314 -3.677276 0.013678 -3.171825 -44.981031 1.513805 0.000000 0.000000 0.000000 -17.239224 -13.526658 -2.588408 5.962180 -2.091443 -0.581117 43.360649 59.467098 30.363439 0.000000 0.000000 0.000000 
0.004766 0.938919 -0.129842 -2.323402 -0.835768 15.333538 10.482530 -0.394297 -22.106541 -2.005805 0.041582 14.181001 1.272529 3.452012 1.863797 0.000000 0.000000 0.000000 -4.800166 1.771582 -24.412834 0.333423 0.799856 21.894909 -2.114198 -6.571837 2.865052 0.000000 0.000000 0.000000 2.307022 -0.387533 3.835701 -0.355171 0.385281 -10.695172 -2.023771 7.808426 6.800862 13.000522 -5.196200 -19.440077 0.000000 0.000000 0.000000 21.814601 12.532060 1.567022 4.703436 -6.632665 -0.174893 1.393285 -35.992644 -0.218527 0.000000 0.000000 0.000000 -21.633455 -16.045214 -2.371118 3.957841 0.472145 -0.416624 26.363126 56.666116 18.860235 0.000000 0.000000 0.000000 
0.009161 0.942653 -0.127499 -1.893565 -0.794936 15.864551 9.517672 -0.557963 -21.479972 -1.478079 -0.055958 12.157704 0.946790 3.253494 3.159579 0.000000 0.000000 0.000000 -5.670461 1.596871 -23.530727 0.339069 0.701715 19.677988 -2.029144 -6.827258 4.263239 0.000000 0.000000 0.000000 2.499908 -0.342805 2.750656 -0.157388 0.321526 -10.892069 -1.146287 8.156006 5.742167 12.459662 -5.022446 -18.532835 0.000000 0.000000 0.000000 24.992594 15.834543 2.069450 5.517412 -7.908659 -0.277598 4.634027 -29.449616 -0.970629 0.000000 0.000000 0.000000 -25.390108 -17.971222 -1.927010 3.234856 1.829063 -0.385666 12.530987 50.593751 9.784666 0.000000 0.000000 0.000000 
0.012864 0.944668 -0.126446 -1.536931 -0.574567 16.057622 8.720003 -0.684532 -20.984392 -0.767304 -0.177543 10.509123 0.777973 3.156979 3.796219 0.000000 0.000000 0.000000 -6.207991 1.489007 -23.092377 0.151195 0.698636 18.599418 -1.896996 -6.457643 4.132216 0.000000 0.000000 0.000000 2.934475 -0.367020 2.492977 -0.090382 0.323266 -11.803813 -0.651094 8.697779 5.005463 12.562672 -5.157421 -17.877094 0.000000 0.000000 0.000000 25.473182 18.262973 2.108400 8.260445 -9.078181 -0.381654 5.241759 -24.383044 -0.888758 0.000000 0.000000 0.000000 -27.092178 -20.416777 -1.906661 1.982535 3.635313 -0.357810 5.882358 45.230291 5.871732 0.000000 0.000000 0.000000 
